<svg width="47" height="47" viewBox="0 0 47 47" fill="none" xmlns="http://www.w3.org/2000/svg">
<g clip-path="url(#clip0)">
<path d="M31.736 10.307C31.625 10.195 31.487 10.114 31.338 10.067L22.363 7.24898C18.774 6.12198 16.439 8.08798 15.81 8.71898C15.443 9.08598 15.162 9.47298 15.018 9.80998L11.02 19.214C10.791 19.752 10.869 20.469 11.228 21.184C11.742 22.205 12.668 22.941 13.775 23.206C15.014 23.503 16.299 23.1 17.305 22.095C17.568 21.832 17.792 21.542 17.924 21.296L19.268 18.803C19.489 18.39 19.81 17.962 20.148 17.624C21.301 16.47 21.849 16.998 22.082 17.222C24.093 19.163 34.636 29.751 34.636 29.751C35.011 30.126 34.933 30.837 34.464 31.305C33.996 31.772 33.284 31.852 32.91 31.479L29.948 28.518C29.566 28.135 28.95 28.135 28.568 28.518C28.186 28.897 28.186 29.516 28.568 29.897L31.53 32.86C31.904 33.233 31.826 33.944 31.358 34.411C30.89 34.88 30.177 34.958 29.805 34.585L26.842 31.624C26.46 31.242 25.842 31.242 25.462 31.624C25.08 32.003 25.08 32.622 25.462 33.004L28.424 35.966C28.798 36.34 28.717 37.051 28.25 37.519C27.783 37.986 27.072 38.066 26.697 37.691L23.735 34.73C23.355 34.349 22.736 34.349 22.355 34.73C21.975 35.111 21.975 35.73 22.355 36.109L25.317 39.072C25.692 39.447 25.612 40.158 25.145 40.626C24.675 41.094 23.964 41.173 23.591 40.799L19.985 37.19C20.5 36.416 20.36 35.293 19.596 34.526C18.74 33.671 17.423 33.592 16.661 34.356C17.423 33.593 17.348 32.278 16.49 31.421C15.632 30.565 14.318 30.486 13.556 31.248C14.318 30.486 14.241 29.172 13.382 28.316C12.526 27.458 11.212 27.38 10.448 28.142C11.212 27.38 11.133 26.066 10.276 25.207C9.47401 24.405 8.27901 24.296 7.50201 24.907L1.66301 19.068C1.28201 18.686 0.663009 18.686 0.282009 19.068C-0.0979907 19.448 -0.0979907 20.067 0.282009 20.449L6.10601 26.272L4.37901 27.999C3.61701 28.76 3.69401 30.074 4.55301 30.933C5.40901 31.789 6.72301 31.868 7.48601 31.105C6.72301 31.868 6.80101 33.181 7.65901 34.039C8.51501 34.894 9.83001 34.975 10.593 34.212C9.83001 34.975 9.90701 36.288 10.765 37.145C11.623 38.003 12.937 38.081 13.699 37.319C12.937 38.08 13.014 39.393 13.872 40.252C14.729 41.108 16.042 41.187 16.806 40.424L18.63 38.601L22.211 42.181C23.354 43.324 25.287 43.244 26.525 42.008C27.128 41.405 27.45 40.635 27.495 39.873C28.257 39.828 29.028 39.505 29.63 38.901C30.234 38.298 30.558 37.528 30.604 36.766C31.365 36.721 32.133 36.399 32.739 35.795C33.342 35.191 33.665 34.422 33.709 33.659C34.472 33.615 35.242 33.293 35.846 32.687C37.082 31.451 37.158 29.515 36.018 28.374L34.508 26.863L40.708 20.664C41.089 20.284 41.089 19.665 40.708 19.284L31.736 10.307Z" fill="#ECEAEA"/>
<path d="M46.43 12.489L38.529 4.588C37.767 3.825 36.53 3.825 35.767 4.588L33.005 7.348C32.243 8.11 32.243 9.347 33.005 10.109L40.907 18.012C41.67 18.774 42.907 18.774 43.669 18.012L46.43 15.251C47.191 14.488 47.191 13.251 46.43 12.489ZM42.283 16.513C41.399 16.513 40.681 15.796 40.681 14.911C40.681 14.026 41.399 13.308 42.283 13.308C43.168 13.308 43.886 14.025 43.886 14.911C43.885 15.795 43.168 16.513 42.283 16.513Z" fill="#ECEAEA"/>
</g>
<defs>
<clipPath id="clip0">
<rect width="47.001" height="47.001" fill="white"/>
</clipPath>
</defs>
</svg>
