<svg width="47" height="47" viewBox="0 0 47 47" fill="none" xmlns="http://www.w3.org/2000/svg">
<g clip-path="url(#clip0)">
<path d="M44.863 10.771H34.865C36.238 11.998 37.412 13.436 38.332 15.043H44.863C46.043 15.043 47 14.087 47 12.907C47 11.728 46.043 10.771 44.863 10.771Z" fill="white"/>
<path d="M44.863 16.158H38.909C39.551 17.498 40.025 18.928 40.3 20.43H44.863C46.043 20.43 47 19.474 47 18.294C47 17.114 46.043 16.158 44.863 16.158Z" fill="white"/>
<path d="M44.863 5.38599H29.048C28.127 5.38599 27.352 5.96999 27.05 6.78399C29.415 7.28599 31.591 8.28799 33.487 9.65799H44.864C46.045 9.65799 47.002 8.70199 47.002 7.52199C47.002 6.34199 46.043 5.38599 44.863 5.38599Z" fill="white"/>
<path d="M29.048 4.272H44.863C46.043 4.272 47 3.316 47 2.136C47 0.957 46.043 0 44.863 0H29.048C27.867 0 26.911 0.957 26.911 2.137C26.911 3.317 27.867 4.272 29.048 4.272Z" fill="white"/>
<path d="M44.863 21.542H40.47C40.543 22.186 40.59 22.837 40.59 23.5C40.59 24.286 40.519 25.057 40.415 25.814H44.862C46.042 25.814 46.999 24.857 46.999 23.677C46.999 22.497 46.043 21.542 44.863 21.542Z" fill="white"/>
<path d="M44.863 26.928H40.244C39.935 28.438 39.415 29.866 38.736 31.2H44.863C46.043 31.2 47 30.244 47 29.064C47 27.884 46.043 26.928 44.863 26.928Z" fill="white"/>
<path d="M44.863 32.313H38.115C37.136 33.93 35.911 35.376 34.47 36.585H44.863C46.043 36.585 47 35.629 47 34.449C47 33.269 46.043 32.313 44.863 32.313Z" fill="white"/>
<path d="M2.137 25.458H6.53C6.456 24.814 6.409 24.163 6.409 23.5C6.409 22.714 6.481 21.944 6.584 21.186H2.137C0.957 21.187 0 22.143 0 23.323C0 24.502 0.957 25.458 2.137 25.458Z" fill="white"/>
<path d="M2.137 30.844H8.091C7.45 29.504 6.975 28.074 6.7 26.573H2.137C0.957 26.573 0 27.528 0 28.708C0 29.888 0.957 30.844 2.137 30.844Z" fill="white"/>
<path d="M2.137 20.073H6.756C7.064 18.564 7.585 17.135 8.263 15.801H2.137C0.957 15.8 0 16.756 0 17.937C0 19.118 0.957 20.073 2.137 20.073Z" fill="white"/>
<path d="M2.137 14.688H8.885C9.864 13.072 11.089 11.625 12.529 10.416H2.137C0.957 10.416 0 11.372 0 12.551C0 13.731 0.957 14.688 2.137 14.688Z" fill="white"/>
<path d="M2.137 36.229H12.135C10.762 35.002 9.588 33.565 8.668 31.958H2.137C0.957 31.958 0 32.914 0 34.093C0 35.274 0.957 36.229 2.137 36.229Z" fill="white"/>
<path d="M2.137 41.615H17.952C18.873 41.615 19.649 41.031 19.95 40.217C17.585 39.715 15.409 38.713 13.514 37.343H2.137C0.957 37.342 0 38.298 0 39.479C0 40.659 0.957 41.615 2.137 41.615Z" fill="white"/>
<path d="M17.952 42.729H2.137C0.957 42.729 0 43.684 0 44.865C0 46.044 0.957 47 2.137 47H17.952C19.133 47 20.089 46.043 20.089 44.863C20.089 43.683 19.133 42.729 17.952 42.729Z" fill="white"/>
<path d="M23.5 8.54602C15.254 8.54602 8.54601 15.254 8.54601 23.5C8.54601 31.746 15.254 38.455 23.5 38.455C31.746 38.455 38.454 31.747 38.454 23.5C38.454 15.253 31.746 8.54602 23.5 8.54602ZM23.5 34.182C17.61 34.182 12.818 29.391 12.818 23.5C12.818 17.61 17.61 12.818 23.5 12.818C29.391 12.818 34.182 17.61 34.182 23.5C34.182 29.391 29.391 34.182 23.5 34.182Z" fill="white"/>
<path d="M24.123 22.057V18.365C26.273 18.405 26.257 20.483 27.519 20.483C28.179 20.483 28.746 20.038 28.746 19.28C28.746 17.376 25.637 16.425 24.123 16.385V15.35C24.123 15.019 23.869 14.689 23.537 14.689C23.209 14.689 22.958 15.019 22.958 15.35V16.385C20.53 16.46 18.334 17.823 18.334 20.463C18.334 22.62 20.078 23.883 22.958 24.406V28.467C19.729 28.331 21.421 25.65 19.245 25.65C18.511 25.65 18.042 26.099 18.042 26.874C18.042 28.41 19.675 30.372 22.958 30.452V31.654C22.958 31.984 23.209 32.314 23.537 32.314C23.869 32.314 24.123 31.984 24.123 31.654V30.452C27.016 30.277 28.958 28.954 28.958 26.351C28.958 23.358 26.688 22.602 24.123 22.057ZM22.958 21.844C21.501 21.551 20.778 20.99 20.778 20.016C20.778 19.182 21.633 18.404 22.958 18.364V21.844ZM24.123 28.466V24.62C25.169 24.851 26.514 25.24 26.514 26.56C26.514 27.842 25.287 28.389 24.123 28.466Z" fill="white"/>
</g>
<defs>
<clipPath id="clip0">
<rect width="47.001" height="47" fill="white"/>
</clipPath>
</defs>
</svg>
