<svg width="47" height="47" viewBox="0 0 47 47" fill="none" xmlns="http://www.w3.org/2000/svg">
<path d="M46.907 20.12C46.744 19.773 46.396 19.551 46.011 19.551H43.084C41.223 9.45203 32.355 1.77502 21.726 1.77502C9.747 1.77502 0 11.522 0 23.501C0 35.48 9.746 45.226 21.726 45.226C29.457 45.226 36.667 41.065 40.542 34.369C41.088 33.424 40.766 32.217 39.82 31.67C38.876 31.123 37.668 31.445 37.123 32.39C33.951 37.871 28.051 41.277 21.726 41.277C11.925 41.277 3.95 33.303 3.95 23.503C3.95 13.701 11.925 5.72702 21.726 5.72702C30.168 5.72702 37.241 11.648 39.043 19.552H36.139C35.754 19.552 35.407 19.774 35.243 20.121C35.08 20.468 35.133 20.877 35.379 21.172L40.317 27.097C40.505 27.322 40.782 27.452 41.076 27.452C41.369 27.452 41.647 27.321 41.834 27.097L46.772 21.172C47.018 20.876 47.07 20.467 46.907 20.12Z" fill="#ECEAEA"/>
<path d="M21.726 6.71301C20.635 6.71301 19.751 7.59701 19.751 8.68801V20.672C18.858 21.298 18.27 22.33 18.27 23.502C18.27 25.408 19.821 26.959 21.727 26.959C22.249 26.959 22.741 26.834 23.185 26.625L30.055 30.59C30.367 30.771 30.705 30.856 31.041 30.856C31.723 30.856 32.387 30.502 32.753 29.868C33.298 28.925 32.975 27.716 32.029 27.171L25.152 23.2C25.06 22.156 24.517 21.244 23.703 20.674V8.68801C23.701 7.59801 22.816 6.71301 21.726 6.71301ZM21.726 24.982C20.909 24.982 20.245 24.317 20.245 23.502C20.245 22.686 20.91 22.021 21.726 22.021C22.542 22.021 23.207 22.686 23.207 23.502C23.207 24.317 22.542 24.982 21.726 24.982Z" fill="#ECEAEA"/>
</svg>
